# xmcd
#
# Track frame offsets:
#	150
#	17075
#	34730
#	48436
#	61816
#	76556
#	95521
#	115565
#	134804
#	147081
#	161245
#	175327
#	189978
#	205283
#	218693
#	230394
#	243643
#	257222
#
# Disc length: 3819
#
# Revision: 3
# Processed by: cddbd v1.5.1PL0 Copyright (c) Steve Scherf et al.
# Submitted via: VisiTrax 2.9.9.209 - For more info visit www.synapsa.com
# Normalized: r2:DSETVAR2
#
DISCID=f80ee912
DTITLE=Various Artist - The Classic of Country Music, Disc 2
DYEAR=2003
DGENRE=Country
TTITLE0=Jim Terly - Love Ting
TTITLE1=Albert Hammond - It Never Rains In Southern California
TTITLE2=Scott McKenzie - San Francisco
TTITLE3=CCR - Cottonfields
TTITLE4=John Denver - Take Me Home Country Roads
TTITLE5=Lobo - I'd Love You To Want Me
TTITLE6=Judy Collins - Blowing In The Wind
TTITLE7=Bertie Higgins - Casablanca
TTITLE8=Mamas and the Papas, The - California Dreaming
TTITLE9=Kenny Rogers - Love Me Tender
TTITLE10=Simon and Garfunkel - The Sound Of Silence
TTITLE11=Andy Williams - El Condor Pasa
TTITLE12=Conway Twitty - Play, Guitar Play
TTITLE13=Sacha Distel - Raindrops Keep Falling On My Head
TTITLE14=Cascades, The - Rhythm Of The Rain
TTITLE15=Hank Williams - Jambalaya
TTITLE16=Dickey Lee - 9,999,999 Tears
TTITLE17=Eagles, The - Hotel California
EXTD=
EXTT0=
EXTT1=
EXTT2=
EXTT3=
EXTT4=
EXTT5=
EXTT6=
EXTT7=
EXTT8=
EXTT9=
EXTT10=
EXTT11=
EXTT12=
EXTT13=
EXTT14=
EXTT15=
EXTT16=
EXTT17=
PLAYORDER=
